<svg width="35" height="20" viewBox="0 0 35 20" fill="none" xmlns="http://www.w3.org/2000/svg"><path d="M17.71 19.994c5.065 0 3.26-2.93 3.65-3.774-.007-.631-.014-1.237.014-1.6.32.082 1.08.432 2.638 1.825C26.425 18.669 27.04 20 28.995 20h3.588c1.135 0 1.73-.431 2.023-.794.287-.35.568-.962.26-1.918-.8-2.299-5.468-6.266-5.762-6.685.041-.075.116-.181.15-.231.923-1.112 4.436-5.93 4.956-7.86v-.013c.28-.88.02-1.45-.24-1.774C33.568.244 32.933 0 32.07 0h-3.588c-1.203 0-2.112.556-2.577 1.562-.772 1.793-2.939 5.48-4.566 6.785-.047-1.849-.013-3.261.007-4.31C21.415 1.992 21.58 0 19.255 0h-5.64c-1.455 0-2.85 1.456-1.34 3.18 1.32 1.512.473 2.356.76 6.548-1.108-1.087-3.083-4.017-4.477-7.772C8.175.943 7.58 0 5.912 0H2.324C.868 0 0 .725 0 1.943c0 2.724 6.603 18.05 17.71 18.05zM5.912 1.999c.315 0 .349 0 .581.606 1.429 3.843 4.628 9.529 6.972 9.529 1.757 0 1.757-1.643 1.757-2.268V4.93c-.096-1.631-.745-2.443-1.176-2.937L19.16 2c0 .025-.027 5.461.014 6.773 0 1.868 1.626 2.943 4.162.594 2.673-2.762 4.525-6.886 4.6-7.054.11-.238.205-.319.547-.319h3.602v.013c-.328 1.4-3.568 5.86-4.648 7.241a.255.255 0 00-.047.069c-.479.712-.869 1.5.068 2.605.082.094.307.313.629.619.998.943 4.415 4.161 4.723 5.436-.198.03-.417.006-3.807.012-.725 0-1.285-.987-3.438-2.974-1.935-1.724-3.192-2.424-4.34-2.424-2.222 0-2.058 1.65-2.038 3.642.007 2.162-.007 1.481.007 1.612-.13.044-.499.138-1.47.138-9.268.012-15.29-13.408-15.522-15.976.082-.007 1.182-.007 3.711-.007z" fill="#fff"/></svg>