<svg width="32" height="24" viewBox="0 0 32 24" fill="none" xmlns="http://www.w3.org/2000/svg"><path d="M13.823 6.15c-.664-.417-1.515.086-1.515.907v9.883c0 .827.851 1.324 1.515.913l7.842-4.938c.652-.41.652-1.41 0-1.82L13.823 6.15zm.489 8.93V8.923l4.886 3.085-4.886 3.072z" fill="#fff"/><path d="M26.535.67c-6.207-.894-14.87-.894-21.077 0A5.754 5.754 0 00.595 5.39c-.793 4.573-.793 8.648 0 13.215a5.754 5.754 0 004.863 4.72c3.107.45 6.832.675 10.558.675 3.713 0 7.425-.225 10.526-.675a5.754 5.754 0 004.863-4.72c.794-4.573.794-8.648 0-13.215a5.754 5.754 0 00-4.87-4.72zm2.894 17.607a3.776 3.776 0 01-3.187 3.114c-6.026.87-14.452.87-20.496 0a3.783 3.783 0 01-3.188-3.114c-.763-4.403-.763-8.162 0-12.57a3.776 3.776 0 013.188-3.115c3.025-.438 6.638-.65 10.25-.65 3.614 0 7.233.219 10.246.65a3.783 3.783 0 013.187 3.114c.77 4.41.77 8.168 0 12.571z" fill="#fff"/></svg>